<svg xmlns="http://www.w3.org/2000/svg" style="fill:#000" version="1.0" viewBox="0 -0.1 504.5 486.7"><defs><clipPath id="a"><path d="M0 32h344v454.102H0Zm0 0"/></clipPath></defs><path d="M482.2 304.906c-.368-29.75-3.567-37.719-8.255-40.531-8.53-5.117-78.414-6.441-108.125-6.773-3.105 0-5.656 2.523-5.691 5.628-.04 3.137 2.488 5.72 5.629 5.758 50.719.567 95.566 2.774 101.906 4.969.645 1.336 2.902 7.691 3.156 31.824.168 15.7-.601 30.809-.61 30.965a5.648 5.648 0 0 0 1.458 4.106 5.679 5.679 0 0 0 4.23 1.882c3.032 0 5.528-2.37 5.688-5.437.082-1.68.809-16.852.613-32.39Zm-38.942 73.438-17.695-5.614a17.538 17.538 0 0 0-5.31-.824c-7.683 0-14.401 4.906-16.722 12.207-1.937 6.102-4.531 10.617-7.71 13.422-3.759 3.317-8.18 4.93-13.512 4.93-7.614 0-13.586-2.688-18.27-8.211-5.012-5.914-7.664-17.559-7.664-33.672 0-15.195 2.602-25.898 7.734-31.816 4.79-5.52 10.946-8.204 18.82-8.204 5.54 0 10.012 1.422 13.673 4.348 2.8 2.242 4.816 5.07 6.168 8.656 2.554 6.758 9.144 11.297 16.394 11.297 1.371 0 2.746-.164 4.09-.484l18.125-4.328a17.567 17.567 0 0 0 11.41-8.817 17.679 17.679 0 0 0 .969-14.46c-3.93-10.551-9.38-19.157-16.195-25.563-13.731-12.992-31.59-19.582-53.083-19.582-24.445 0-44.562 8.273-59.789 24.586-15.02 16.094-22.632 38.515-22.632 66.644 0 26.778 7.593 48.414 22.57 64.301 15.152 16.082 34.664 24.238 57.988 24.238 18.758 0 34.645-4.84 47.219-14.382 11.059-8.395 19.39-20.598 24.758-36.27 1.539-4.48 1.207-9.289-.93-13.539a17.723 17.723 0 0 0-10.406-8.863ZM227.934 243.387h-58.485c-8.137 0-19.008 1.73-26.965-.575-22.734-6.585-20.586-52.277-21.214-68.449-1.63-41.75-1.63-82.418 1.625-120.375 1.632-19.039-.711-46.437 27.09-48.93 40.59-3.64 83.636-5.062 124.406-5.062 15.757 0 94.851-.129 102.816 23.625 3.898 11.613 2.316 18.363 2.8 29.977 2.153 51.695 2.891 95.511-1.866 151.062-1.852 21.637-1.188 37.973-30.184 38.727-39.934 1.035-80.074 0-120.023 0" style="fill:#000"/><g clip-path="url(#a)"><path d="M244.488 225.242a3.165 3.165 0 0 0 3.032-3.293c-.075-1.742-1.504-3.105-3.293-3.027-34.747 1.45-92.41 1.605-99.227-4.137-.89-.797-5.336-7.574-5.453-63.11-.063-29.476 1.137-58.226 1.148-58.515a3.162 3.162 0 0 0-3.027-3.293c-1.762-.105-3.219 1.281-3.293 3.028-.012.289-1.223 29.289-1.156 58.972.14 61.387 5.441 65.852 7.703 67.754 6.254 5.27 35.332 6.52 61.488 6.52 18.574 0 35.676-.63 42.078-.899Zm7.832-100.008h16.215l-8.187-22.054Zm89.07 71.543a15.115 15.115 0 0 1-12.53 6.653h-20.024c-6.219 0-11.895-3.899-14.125-9.7l-9.61-24.996h-48.726l-8.988 24.73c-2.16 5.962-7.875 9.966-14.219 9.966h-19.2a15.116 15.116 0 0 1-12.491-6.594 15.108 15.108 0 0 1-1.606-14.031l54.621-140.246c2.285-5.856 7.817-9.637 14.102-9.637h24.11c6.222 0 11.733 3.73 14.046 9.504l56.156 140.25a15.106 15.106 0 0 1-1.515 14.101Zm-107.706 65.32c3.976 61.606 1.937 120.055-2.297 180.93-1.504 21.664-1.555 41.86-27.637 42.614-35.922 1.035-72.031 0-107.969 0h-52.61c-7.32 0-17.097-1.457-24.257-3.762-20.45-6.586-18.426-51.387-18.426-67.57 0-38.825-1.414-77.829.575-116.598 1.148-22.402-.407-47.906 24.601-50.399 36.512-3.64 61.066-3.019 97.742-3.019 14.172 0 109.13 0 110.278 17.805" style="fill:#fa2d96"/></g><path d="M479.055 337.203a3.164 3.164 0 0 1-3.157 3c-.054 0-.109-.004-.164-.004a3.163 3.163 0 0 1-2.996-3.324c.008-.152.782-15.344.614-31.117-.313-29.793-3.641-33.5-4.02-33.828-5.074-2.844-57.156-4.953-103.547-5.473a3.163 3.163 0 0 1 .035-6.324h.035c16.352.18 98.348 1.347 106.79 6.414 3.261 1.957 6.648 8.047 7.027 38.39.2 16.25-.61 32.106-.617 32.266Zm-26.852 62.723C447 415.113 438.957 426.914 428.31 435c-12.13 9.203-27.5 13.867-45.692 13.867-22.601 0-41.492-7.887-56.148-23.441-14.52-15.403-21.883-36.453-21.883-62.567 0-27.468 7.387-49.308 21.953-64.918 14.73-15.78 34.227-23.78 57.941-23.78 20.825 0 38.098 6.355 51.34 18.89 6.532 6.137 11.774 14.422 15.567 24.605a15.147 15.147 0 0 1-.828 12.387 15.049 15.049 0 0 1-9.766 7.547l-18.129 4.328a15.096 15.096 0 0 1-3.5.414c-6.207 0-11.84-3.883-14.023-9.66-1.52-4.024-3.797-7.207-6.957-9.735-4.13-3.3-9.118-4.906-15.254-4.906-8.653 0-15.434 2.969-20.73 9.078-5.544 6.391-8.356 17.653-8.356 33.473 0 16.723 2.86 28.934 8.265 35.309 5.192 6.125 11.797 9.101 20.2 9.101 5.976 0 10.945-1.816 15.183-5.558 3.528-3.114 6.371-8.012 8.45-14.551 1.988-6.25 7.738-10.445 14.308-10.445 1.543 0 3.074.238 4.55.707l17.692 5.609a15.163 15.163 0 0 1 8.91 7.594c1.828 3.632 2.114 7.746.801 11.578Zm47.418-16.633c0-36.676-.996-72.348-4.637-108.86-2.492-25.007-35.789-24.37-54.875-25.238-37.91-1.722-67.457-.543-106.28-.543-16.18 0-70.013 1.774-76.599 22.223-2.304 7.156-5.164 55.824-5.164 73.36 0 35.937 3.555 72.363 4.594 108.288.75 26.082 17.344 30.137 39.059 30.137 61.734 0 120.254 3.863 183.8-2.297 24.938-2.418 20.102-82.898 20.102-97.07ZM209.383 272.672c7.941 9.64 6.512 77.965 6.144 91.562a3.163 3.163 0 0 1-3.16 3.079h-.086a3.164 3.164 0 0 1-3.078-3.247c.887-32.832.016-81.648-4.703-87.375-4.105-4.988-50.633-8.351-91.387-8.605a3.163 3.163 0 0 1-3.14-3.184 3.162 3.162 0 0 1 3.164-3.144h.02c.214 0 21.89.148 44.214 1.43 46.39 2.652 50.332 7.437 52.012 9.484ZM134.82 398.3c-1.347 1.515-3.039 2.414-5.32 2.828l-.2.035c-.929.195-4.413.649-16.69.649H95.628v-19.926h13.832c15.234 0 19.832 1.023 21.102 1.465 2.074.722 3.562 1.757 4.539 3.16 1.011 1.457 1.503 3.32 1.503 5.699 0 2.754-.582 4.746-1.785 6.09ZM95.63 329.434h7.625c15.973 0 20.574.25 21.836.394 2.492.305 4.246 1.008 5.203 2.094.36.406 1.457 1.648 1.457 4.863 0 2.848-.89 4.106-1.668 4.88-1.367 1.366-3.406 2.194-6.238 2.53-1.239.149-5.278.399-18.434.399H95.63Zm66.39 30.75a39.326 39.326 0 0 0 4.766-6.012c4.125-6.395 6.219-13.516 6.219-21.164 0-7.059-1.719-13.555-5.11-19.32-3.265-5.547-7.44-10.079-12.414-13.47-4.953-3.374-10.605-5.616-16.804-6.667-5.61-.95-13.668-1.414-24.63-1.414H66.72c-7.203 0-13.063 5.863-13.063 13.066v121.11c0 7.203 5.86 13.066 13.063 13.066h39.554c17.399-.125 28.157-.434 32.907-.945 8.34-.918 15.55-3.477 21.43-7.602 5.874-4.125 10.55-9.668 13.898-16.477 3.3-6.703 4.972-13.73 4.972-20.886 0-9.309-2.71-17.567-8.058-24.547-2.59-3.387-5.746-6.317-9.402-8.738" style="fill:#4a71f6"/></svg>