<svg xmlns="http://www.w3.org/2000/svg" style="fill:#f5dfbc" version="1.0" viewBox="0 0 1048.8 1048.8"><path d="M1048.798 0H0v3h.011v29.681H0v3h.011v29.681H0v3h.011v29.681H0v3h.011v29.681H0v3h.011v29.681H0v3h.011v29.681H0v3h.011v29.681H0v3h.011v29.681H0v3h.011v29.681H0v3h.011v29.681H0v3h.011v29.681H0v3h.011v29.681H0v3h.011v29.681H0v3h.011v29.681H0v3h.011v29.681H0v3h.011v29.681H0v3h.011v29.681H0v3h.011v29.681H0v3h.011v29.681H0v3h.011v29.681H0v3h.011v29.681H0v3h.011v29.681H0v3h.011v29.681H0v3h.011v29.681H0v3h.011v29.681H0v3h.011v29.681H0v3h.011v29.681H0v3h.011v29.681H0v3h.011v29.681H0v3h.011v29.681H0v3h.011v29.681H0v3h.011v29.681H0v3h1048.372v-.01h.426V0Zm-3 3v29.681h-29.681V3h29.681ZM525.904 522.894v-29.681h29.681v29.681h-29.681Zm29.681 3v29.681h-29.681v-29.681h29.681Zm-32.681-3h-29.681v-29.681h29.681v29.681Zm0 3v29.681h-29.681v-29.681h29.681Zm0 32.681v29.681h-29.681v-29.681h29.681Zm3 0h29.681v29.681h-29.681v-29.681Zm32.681 0h29.682v29.681h-29.682v-29.681Zm0-3v-29.681h29.682v29.681h-29.682Zm0-32.681v-29.681h29.682v29.681h-29.682Zm0-32.681v-29.681h29.682v29.681h-29.682Zm-3 0h-29.681v-29.681h29.681v29.681Zm-32.681 0h-29.681v-29.681h29.681v29.681Zm-32.681 0h-29.681v-29.681h29.681v29.681Zm0 3v29.681h-29.681v-29.681h29.681Zm0 32.681v29.681h-29.681v-29.681h29.681Zm0 32.681v29.681h-29.681v-29.681h29.681Zm0 32.681v29.681h-29.681v-29.681h29.681Zm3 0h29.681v29.681h-29.681v-29.681Zm32.681 0h29.681v29.681h-29.681v-29.681Zm32.681 0h29.682v29.681h-29.682v-29.681Zm32.682 0h29.681v29.681h-29.681v-29.681Zm0-3v-29.681h29.681v29.681h-29.681Zm0-32.681v-29.681h29.681v29.681h-29.681Zm0-32.681v-29.681h29.681v29.681h-29.681Zm0-32.681v-29.681h29.681v29.681h-29.681Zm0-32.681v-29.681h29.681v29.681h-29.681Zm-3 0h-29.682v-29.681h29.682v29.681Zm-32.682 0h-29.681v-29.681h29.681v29.681Zm-32.681 0h-29.681v-29.681h29.681v29.681Zm-32.681 0h-29.681v-29.681h29.681v29.681Zm-32.681 0h-29.681v-29.681h29.681v29.681Zm0 3v29.681h-29.681v-29.681h29.681Zm0 32.681v29.681h-29.681v-29.681h29.681Zm0 32.681v29.681h-29.681v-29.681h29.681Zm0 32.681v29.681h-29.681v-29.681h29.681Zm0 32.681v29.681h-29.681v-29.681h29.681Zm0 32.681v29.681h-29.681v-29.681h29.681Zm3 0h29.681v29.681h-29.681v-29.681Zm32.681 0h29.681v29.681h-29.681v-29.681Zm32.681 0h29.681v29.681h-29.681v-29.681Zm32.681 0h29.682v29.681h-29.682v-29.681Zm32.682 0h29.681v29.681h-29.681v-29.681Zm32.681 0h29.681v29.681h-29.681v-29.681Zm0-3v-29.681h29.681v29.681h-29.681Zm0-32.681v-29.681h29.681v29.681h-29.681Zm0-32.681v-29.681h29.681v29.681h-29.681Zm0-32.681v-29.681h29.681v29.681h-29.681Zm0-32.681v-29.681h29.681v29.681h-29.681Zm0-32.681v-29.681h29.681v29.681h-29.681Zm0-32.681V395.17h29.681v29.681h-29.681Zm-3 0h-29.681V395.17h29.681v29.681Zm-32.681 0h-29.682V395.17h29.682v29.681Zm-32.682 0h-29.681V395.17h29.681v29.681Zm-32.681 0h-29.681V395.17h29.681v29.681Zm-32.681 0h-29.681V395.17h29.681v29.681Zm-32.681 0h-29.681V395.17h29.681v29.681Zm-32.681 0H395.18V395.17h29.681v29.681Zm0 3v29.681H395.18v-29.681h29.681Zm0 32.681v29.681H395.18v-29.681h29.681Zm0 32.681v29.681H395.18v-29.681h29.681Zm0 32.681v29.681H395.18v-29.681h29.681Zm0 32.681v29.681H395.18v-29.681h29.681Zm0 32.681v29.681H395.18v-29.681h29.681Zm0 32.681v29.681H395.18v-29.681h29.681Zm0 32.681v29.681H395.18v-29.681h29.681Zm3 0h29.681v29.681h-29.681v-29.681Zm32.681 0h29.681v29.681h-29.681v-29.681Zm32.681 0h29.681v29.681h-29.681v-29.681Zm32.681 0h29.681v29.681h-29.681v-29.681Zm32.681 0h29.682v29.681h-29.682v-29.681Zm32.682 0h29.681v29.681h-29.681v-29.681Zm32.681 0h29.681v29.681h-29.681v-29.681Zm32.681 0h29.681v29.681h-29.681v-29.681Zm0-3v-29.681h29.681v29.681h-29.681Zm0-32.681v-29.681h29.681v29.681h-29.681Zm0-32.681v-29.681h29.681v29.681h-29.681Zm0-32.681v-29.681h29.681v29.681h-29.681Zm0-32.681v-29.681h29.681v29.681h-29.681Zm0-32.681v-29.681h29.681v29.681h-29.681Zm0-32.681v-29.681h29.681v29.681h-29.681Zm0-32.681V395.17h29.681v29.681h-29.681Zm0-32.681v-29.681h29.681v29.681h-29.681Zm-3 0h-29.681v-29.681h29.681v29.681Zm-32.681 0h-29.681v-29.681h29.681v29.681Zm-32.681 0h-29.682v-29.681h29.682v29.681Zm-32.682 0h-29.681v-29.681h29.681v29.681Zm-32.681 0h-29.681v-29.681h29.681v29.681Zm-32.681 0h-29.681v-29.681h29.681v29.681Zm-32.681 0h-29.681v-29.681h29.681v29.681Zm-32.681 0H395.18v-29.681h29.681v29.681Zm-32.681 0h-29.682v-29.681h29.682v29.681Zm0 3v29.681h-29.682V395.17h29.682Zm0 32.681v29.681h-29.682v-29.681h29.682Zm0 32.681v29.681h-29.682v-29.681h29.682Zm0 32.681v29.681h-29.682v-29.681h29.682Zm0 32.681v29.681h-29.682v-29.681h29.682Zm0 32.681v29.681h-29.682v-29.681h29.682Zm0 32.681v29.681h-29.682v-29.681h29.682Zm0 32.681v29.681h-29.682v-29.681h29.682Zm0 32.681v29.681h-29.682v-29.681h29.682Zm0 32.681v29.681h-29.682v-29.681h29.682Zm3 0h29.681v29.681H395.18v-29.681Zm32.681 0h29.681v29.681h-29.681v-29.681Zm32.681 0h29.681v29.681h-29.681v-29.681Zm32.681 0h29.681v29.681h-29.681v-29.681Zm32.681 0h29.681v29.681h-29.681v-29.681Zm32.681 0h29.682v29.681h-29.682v-29.681Zm32.682 0h29.681v29.681h-29.681v-29.681Zm32.681 0h29.681v29.681h-29.681v-29.681Zm32.681 0h29.681v29.681h-29.681v-29.681Zm32.681 0h29.681v29.681H689.31v-29.681Zm0-3v-29.681h29.681v29.681H689.31Zm0-32.681v-29.681h29.681v29.681H689.31Zm0-32.681v-29.681h29.681v29.681H689.31Zm0-32.681v-29.681h29.681v29.681H689.31Zm0-32.681v-29.681h29.681v29.681H689.31Zm0-32.681v-29.681h29.681v29.681H689.31Zm0-32.681v-29.681h29.681v29.681H689.31Zm0-32.681v-29.681h29.681v29.681H689.31Zm0-32.681V395.17h29.681v29.681H689.31Zm0-32.681v-29.681h29.681v29.681H689.31Zm0-32.681v-29.681h29.681v29.681H689.31Zm-3 0h-29.681v-29.681h29.681v29.681Zm-32.681 0h-29.681v-29.681h29.681v29.681Zm-32.681 0h-29.681v-29.681h29.681v29.681Zm-32.681 0h-29.682v-29.681h29.682v29.681Zm-32.682 0h-29.681v-29.681h29.681v29.681Zm-32.681 0h-29.681v-29.681h29.681v29.681Zm-32.681 0h-29.681v-29.681h29.681v29.681Zm-32.681 0h-29.681v-29.681h29.681v29.681Zm-32.681 0H395.18v-29.681h29.681v29.681Zm-32.681 0h-29.682v-29.681h29.682v29.681Zm-32.682 0h-29.681v-29.681h29.681v29.681Zm0 3v29.681h-29.681v-29.681h29.681Zm0 32.681v29.681h-29.681V395.17h29.681Zm0 32.681v29.681h-29.681v-29.681h29.681Zm0 32.681v29.681h-29.681v-29.681h29.681Zm0 32.681v29.681h-29.681v-29.681h29.681Zm0 32.681v29.681h-29.681v-29.681h29.681Zm0 32.681v29.681h-29.681v-29.681h29.681Zm0 32.681v29.681h-29.681v-29.681h29.681Zm0 32.681v29.681h-29.681v-29.681h29.681Zm0 32.681v29.681h-29.681v-29.681h29.681Zm0 32.681v29.681h-29.681v-29.681h29.681Zm0 32.681v29.681h-29.681V721.98h29.681Zm3 0h29.682v29.681h-29.682V721.98Zm32.682 0h29.681v29.681H395.18V721.98Zm32.681 0h29.681v29.681h-29.681V721.98Zm32.681 0h29.681v29.681h-29.681V721.98Zm32.681 0h29.681v29.681h-29.681V721.98Zm32.681 0h29.681v29.681h-29.681V721.98Zm32.681 0h29.682v29.681h-29.682V721.98Zm32.682 0h29.681v29.681h-29.681V721.98Zm32.681 0h29.681v29.681h-29.681V721.98Zm32.681 0h29.681v29.681h-29.681V721.98Zm32.681 0h29.681v29.681H689.31V721.98Zm32.681 0h29.682v29.681h-29.682V721.98Zm0-3v-29.681h29.682v29.681h-29.682Zm0-32.681v-29.681h29.682v29.681h-29.682Zm0-32.681v-29.681h29.682v29.681h-29.682Zm0-32.681v-29.681h29.682v29.681h-29.682Zm0-32.681v-29.681h29.682v29.681h-29.682Zm0-32.681v-29.681h29.682v29.681h-29.682Zm0-32.681v-29.681h29.682v29.681h-29.682Zm0-32.681v-29.681h29.682v29.681h-29.682Zm0-32.681v-29.681h29.682v29.681h-29.682Zm0-32.681V395.17h29.682v29.681h-29.682Zm0-32.681v-29.681h29.682v29.681h-29.682Zm0-32.681v-29.681h29.682v29.681h-29.682Zm0-32.681v-29.681h29.682v29.681h-29.682Zm-3 0H689.31v-29.681h29.681v29.681Zm-32.681 0h-29.681v-29.681h29.681v29.681Zm-32.681 0h-29.681v-29.681h29.681v29.681Zm-32.681 0h-29.681v-29.681h29.681v29.681Zm-32.681 0h-29.682v-29.681h29.682v29.681Zm-32.682 0h-29.681v-29.681h29.681v29.681Zm-32.681 0h-29.681v-29.681h29.681v29.681Zm-32.681 0h-29.681v-29.681h29.681v29.681Zm-32.681 0h-29.681v-29.681h29.681v29.681Zm-32.681 0H395.18v-29.681h29.681v29.681Zm-32.681 0h-29.682v-29.681h29.682v29.681Zm-32.682 0h-29.681v-29.681h29.681v29.681Zm-32.681 0h-29.681v-29.681h29.681v29.681Zm0 3v29.681h-29.681v-29.681h29.681Zm0 32.681v29.681h-29.681v-29.681h29.681Zm0 32.681v29.681h-29.681V395.17h29.681Zm0 32.681v29.681h-29.681v-29.681h29.681Zm0 32.681v29.681h-29.681v-29.681h29.681Zm0 32.681v29.681h-29.681v-29.681h29.681Zm0 32.681v29.681h-29.681v-29.681h29.681Zm0 32.681v29.681h-29.681v-29.681h29.681Zm0 32.681v29.681h-29.681v-29.681h29.681Zm0 32.681v29.681h-29.681v-29.681h29.681Zm0 32.681v29.681h-29.681v-29.681h29.681Zm0 32.681v29.681h-29.681v-29.681h29.681Zm0 32.681v29.681h-29.681V721.98h29.681Zm0 32.681v29.681h-29.681v-29.681h29.681Zm3 0h29.681v29.681h-29.681v-29.681Zm32.681 0h29.682v29.681h-29.682v-29.681Zm32.682 0h29.681v29.681H395.18v-29.681Zm32.681 0h29.681v29.681h-29.681v-29.681Zm32.681 0h29.681v29.681h-29.681v-29.681Zm32.681 0h29.681v29.681h-29.681v-29.681Zm32.681 0h29.681v29.681h-29.681v-29.681Zm32.681 0h29.682v29.681h-29.682v-29.681Zm32.682 0h29.681v29.681h-29.681v-29.681Zm32.681 0h29.681v29.681h-29.681v-29.681Zm32.681 0h29.681v29.681h-29.681v-29.681Zm32.681 0h29.681v29.681H689.31v-29.681Zm32.681 0h29.682v29.681h-29.682v-29.681Zm32.682 0h29.681v29.681h-29.681v-29.681Zm0-3V721.98h29.681v29.681h-29.681Zm0-32.681v-29.681h29.681v29.681h-29.681Zm0-32.681v-29.681h29.681v29.681h-29.681Zm0-32.681v-29.681h29.681v29.681h-29.681Zm0-32.681v-29.681h29.681v29.681h-29.681Zm0-32.681v-29.681h29.681v29.681h-29.681Zm0-32.681v-29.681h29.681v29.681h-29.681Zm0-32.681v-29.681h29.681v29.681h-29.681Zm0-32.681v-29.681h29.681v29.681h-29.681Zm0-32.681v-29.681h29.681v29.681h-29.681Zm0-32.681V395.17h29.681v29.681h-29.681Zm0-32.681v-29.681h29.681v29.681h-29.681Zm0-32.681v-29.681h29.681v29.681h-29.681Zm0-32.681v-29.681h29.681v29.681h-29.681Zm0-32.681v-29.681h29.681v29.681h-29.681Zm-3 0h-29.682v-29.681h29.682v29.681Zm-32.682 0H689.31v-29.681h29.681v29.681Zm-32.681 0h-29.681v-29.681h29.681v29.681Zm-32.681 0h-29.681v-29.681h29.681v29.681Zm-32.681 0h-29.681v-29.681h29.681v29.681Zm-32.681 0h-29.682v-29.681h29.682v29.681Zm-32.682 0h-29.681v-29.681h29.681v29.681Zm-32.681 0h-29.681v-29.681h29.681v29.681Zm-32.681 0h-29.681v-29.681h29.681v29.681Zm-32.681 0h-29.681v-29.681h29.681v29.681Zm-32.681 0H395.18v-29.681h29.681v29.681Zm-32.681 0h-29.682v-29.681h29.682v29.681Zm-32.682 0h-29.681v-29.681h29.681v29.681Zm-32.681 0h-29.681v-29.681h29.681v29.681Zm-32.681 0h-29.681v-29.681h29.681v29.681Zm0 3v29.681h-29.681v-29.681h29.681Zm0 32.681v29.681h-29.681v-29.681h29.681Zm0 32.681v29.681h-29.681v-29.681h29.681Zm0 32.681v29.681h-29.681V395.17h29.681Zm0 32.681v29.681h-29.681v-29.681h29.681Zm0 32.681v29.681h-29.681v-29.681h29.681Zm0 32.681v29.681h-29.681v-29.681h29.681Zm0 32.681v29.681h-29.681v-29.681h29.681Zm0 32.681v29.681h-29.681v-29.681h29.681Zm0 32.681v29.681h-29.681v-29.681h29.681Zm0 32.681v29.681h-29.681v-29.681h29.681Zm0 32.681v29.681h-29.681v-29.681h29.681Zm0 32.681v29.681h-29.681v-29.681h29.681Zm0 32.681v29.681h-29.681V721.98h29.681Zm0 32.681v29.681h-29.681v-29.681h29.681Zm0 32.681v29.681h-29.681v-29.681h29.681Zm3 0h29.681v29.681h-29.681v-29.681Zm32.681 0h29.681v29.681h-29.681v-29.681Zm32.681 0h29.682v29.681h-29.682v-29.681Zm32.682 0h29.681v29.681H395.18v-29.681Zm32.681 0h29.681v29.681h-29.681v-29.681Zm32.681 0h29.681v29.681h-29.681v-29.681Zm32.681 0h29.681v29.681h-29.681v-29.681Zm32.681 0h29.681v29.681h-29.681v-29.681Zm32.681 0h29.682v29.681h-29.682v-29.681Zm32.682 0h29.681v29.681h-29.681v-29.681Zm32.681 0h29.681v29.681h-29.681v-29.681Zm32.681 0h29.681v29.681h-29.681v-29.681Zm32.681 0h29.681v29.681H689.31v-29.681Zm32.681 0h29.682v29.681h-29.682v-29.681Zm32.682 0h29.681v29.681h-29.681v-29.681Zm32.681 0h29.681v29.681h-29.681v-29.681Zm0-3v-29.681h29.681v29.681h-29.681Zm0-32.681V721.98h29.681v29.681h-29.681Zm0-32.681v-29.681h29.681v29.681h-29.681Zm0-32.681v-29.681h29.681v29.681h-29.681Zm0-32.681v-29.681h29.681v29.681h-29.681Zm0-32.681v-29.681h29.681v29.681h-29.681Zm0-32.681v-29.681h29.681v29.681h-29.681Zm0-32.681v-29.681h29.681v29.681h-29.681Zm0-32.681v-29.681h29.681v29.681h-29.681Zm0-32.681v-29.681h29.681v29.681h-29.681Zm0-32.681v-29.681h29.681v29.681h-29.681Zm0-32.681V395.17h29.681v29.681h-29.681Zm0-32.681v-29.681h29.681v29.681h-29.681Zm0-32.681v-29.681h29.681v29.681h-29.681Zm0-32.681v-29.681h29.681v29.681h-29.681Zm0-32.681v-29.681h29.681v29.681h-29.681Zm0-32.681v-29.681h29.681v29.681h-29.681Zm-3 0h-29.681v-29.681h29.681v29.681Zm-32.681 0h-29.682v-29.681h29.682v29.681Zm-32.682 0H689.31v-29.681h29.681v29.681Zm-32.681 0h-29.681v-29.681h29.681v29.681Zm-32.681 0h-29.681v-29.681h29.681v29.681Zm-32.681 0h-29.681v-29.681h29.681v29.681Zm-32.681 0h-29.682v-29.681h29.682v29.681Zm-32.682 0h-29.681v-29.681h29.681v29.681Zm-32.681 0h-29.681v-29.681h29.681v29.681Zm-32.681 0h-29.681v-29.681h29.681v29.681Zm-32.681 0h-29.681v-29.681h29.681v29.681Zm-32.681 0H395.18v-29.681h29.681v29.681Zm-32.681 0h-29.682v-29.681h29.682v29.681Zm-32.682 0h-29.681v-29.681h29.681v29.681Zm-32.681 0h-29.681v-29.681h29.681v29.681Zm-32.681 0h-29.681v-29.681h29.681v29.681Zm-32.681 0h-29.681v-29.681h29.681v29.681Zm0 3v29.681h-29.681v-29.681h29.681Zm0 32.681v29.681h-29.681v-29.681h29.681Zm0 32.681v29.681h-29.681v-29.681h29.681Zm0 32.681v29.681h-29.681v-29.681h29.681Zm0 32.681v29.681h-29.681V395.17h29.681Zm0 32.681v29.681h-29.681v-29.681h29.681Zm0 32.681v29.681h-29.681v-29.681h29.681Zm0 32.681v29.681h-29.681v-29.681h29.681Zm0 32.681v29.681h-29.681v-29.681h29.681Zm0 32.681v29.681h-29.681v-29.681h29.681Zm0 32.681v29.681h-29.681v-29.681h29.681Zm0 32.681v29.681h-29.681v-29.681h29.681Zm0 32.681v29.681h-29.681v-29.681h29.681Zm0 32.681v29.681h-29.681v-29.681h29.681Zm0 32.681v29.681h-29.681V721.98h29.681Zm0 32.681v29.681h-29.681v-29.681h29.681Zm0 32.681v29.681h-29.681v-29.681h29.681Zm0 32.681v29.681h-29.681v-29.681h29.681Zm3 0h29.681v29.681h-29.681v-29.681Zm32.681 0h29.681v29.681h-29.681v-29.681Zm32.681 0h29.681v29.681h-29.681v-29.681Zm32.681 0h29.682v29.681h-29.682v-29.681Zm32.682 0h29.681v29.681H395.18v-29.681Zm32.681 0h29.681v29.681h-29.681v-29.681Zm32.681 0h29.681v29.681h-29.681v-29.681Zm32.681 0h29.681v29.681h-29.681v-29.681Zm32.681 0h29.681v29.681h-29.681v-29.681Zm32.681 0h29.682v29.681h-29.682v-29.681Zm32.682 0h29.681v29.681h-29.681v-29.681Zm32.681 0h29.681v29.681h-29.681v-29.681Zm32.681 0h29.681v29.681h-29.681v-29.681Zm32.681 0h29.681v29.681H689.31v-29.681Zm32.681 0h29.682v29.681h-29.682v-29.681Zm32.682 0h29.681v29.681h-29.681v-29.681Zm32.681 0h29.681v29.681h-29.681v-29.681Zm32.681 0h29.681v29.681h-29.681v-29.681Zm0-3v-29.681h29.681v29.681h-29.681Zm0-32.681v-29.681h29.681v29.681h-29.681Zm0-32.681V721.98h29.681v29.681h-29.681Zm0-32.681v-29.681h29.681v29.681h-29.681Zm0-32.681v-29.681h29.681v29.681h-29.681Zm0-32.681v-29.681h29.681v29.681h-29.681Zm0-32.681v-29.681h29.681v29.681h-29.681Zm0-32.681v-29.681h29.681v29.681h-29.681Zm0-32.681v-29.681h29.681v29.681h-29.681Zm0-32.681v-29.681h29.681v29.681h-29.681Zm0-32.681v-29.681h29.681v29.681h-29.681Zm0-32.681v-29.681h29.681v29.681h-29.681Zm0-32.681V395.17h29.681v29.681h-29.681Zm0-32.681v-29.681h29.681v29.681h-29.681Zm0-32.681v-29.681h29.681v29.681h-29.681Zm0-32.681v-29.681h29.681v29.681h-29.681Zm0-32.681v-29.681h29.681v29.681h-29.681Zm0-32.681v-29.681h29.681v29.681h-29.681Zm0-32.681v-29.681h29.681v29.681h-29.681Zm-3 0h-29.681v-29.681h29.681v29.681Zm-32.681 0h-29.681v-29.681h29.681v29.681Zm-32.681 0h-29.682v-29.681h29.682v29.681Zm-32.682 0H689.31v-29.681h29.681v29.681Zm-32.681 0h-29.681v-29.681h29.681v29.681Zm-32.681 0h-29.681v-29.681h29.681v29.681Zm-32.681 0h-29.681v-29.681h29.681v29.681Zm-32.681 0h-29.682v-29.681h29.682v29.681Zm-32.682 0h-29.681v-29.681h29.681v29.681Zm-32.681 0h-29.681v-29.681h29.681v29.681Zm-32.681 0h-29.681v-29.681h29.681v29.681Zm-32.681 0h-29.681v-29.681h29.681v29.681Zm-32.681 0H395.18v-29.681h29.681v29.681Zm-32.681 0h-29.682v-29.681h29.682v29.681Zm-32.682 0h-29.681v-29.681h29.681v29.681Zm-32.681 0h-29.681v-29.681h29.681v29.681Zm-32.681 0h-29.681v-29.681h29.681v29.681Zm-32.681 0h-29.681v-29.681h29.681v29.681Zm-32.681 0h-29.682v-29.681h29.682v29.681Zm0 3v29.681h-29.682v-29.681h29.682Zm0 32.681v29.681h-29.682v-29.681h29.682Zm0 32.681v29.681h-29.682v-29.681h29.682Zm0 32.681v29.681h-29.682v-29.681h29.682Zm0 32.681v29.681h-29.682v-29.681h29.682Zm0 32.681v29.681h-29.682V395.17h29.682Zm0 32.681v29.681h-29.682v-29.681h29.682Zm0 32.681v29.681h-29.682v-29.681h29.682Zm0 32.681v29.681h-29.682v-29.681h29.682Zm0 32.681v29.681h-29.682v-29.681h29.682Zm0 32.681v29.681h-29.682v-29.681h29.682Zm0 32.681v29.681h-29.682v-29.681h29.682Zm0 32.681v29.681h-29.682v-29.681h29.682Zm0 32.681v29.681h-29.682v-29.681h29.682Zm0 32.681v29.681h-29.682v-29.681h29.682Zm0 32.681v29.681h-29.682V721.98h29.682Zm0 32.681v29.681h-29.682v-29.681h29.682Zm0 32.681v29.681h-29.682v-29.681h29.682Zm0 32.681v29.681h-29.682v-29.681h29.682Zm0 32.681v29.681h-29.682v-29.681h29.682Zm3 0h29.681v29.681h-29.681v-29.681Zm32.681 0h29.681v29.681h-29.681v-29.681Zm32.681 0h29.681v29.681h-29.681v-29.681Zm32.681 0h29.681v29.681h-29.681v-29.681Zm32.681 0h29.682v29.681h-29.682v-29.681Zm32.682 0h29.681v29.681H395.18v-29.681Zm32.681 0h29.681v29.681h-29.681v-29.681Zm32.681 0h29.681v29.681h-29.681v-29.681Zm32.681 0h29.681v29.681h-29.681v-29.681Zm32.681 0h29.681v29.681h-29.681v-29.681Zm32.681 0h29.682v29.681h-29.682v-29.681Zm32.682 0h29.681v29.681h-29.681v-29.681Zm32.681 0h29.681v29.681h-29.681v-29.681Zm32.681 0h29.681v29.681h-29.681v-29.681Zm32.681 0h29.681v29.681H689.31v-29.681Zm32.681 0h29.682v29.681h-29.682v-29.681Zm32.682 0h29.681v29.681h-29.681v-29.681Zm32.681 0h29.681v29.681h-29.681v-29.681Zm32.681 0h29.681v29.681h-29.681v-29.681Zm32.681 0h29.681v29.681h-29.681v-29.681Zm0-3v-29.681h29.681v29.681h-29.681Zm0-32.681v-29.681h29.681v29.681h-29.681Zm0-32.681v-29.681h29.681v29.681h-29.681Zm0-32.681V721.98h29.681v29.681h-29.681Zm0-32.681v-29.681h29.681v29.681h-29.681Zm0-32.681v-29.681h29.681v29.681h-29.681Zm0-32.681v-29.681h29.681v29.681h-29.681Zm0-32.681v-29.681h29.681v29.681h-29.681Zm0-32.681v-29.681h29.681v29.681h-29.681Zm0-32.681v-29.681h29.681v29.681h-29.681Zm0-32.681v-29.681h29.681v29.681h-29.681Zm0-32.681v-29.681h29.681v29.681h-29.681Zm0-32.681v-29.681h29.681v29.681h-29.681Zm0-32.681V395.17h29.681v29.681h-29.681Zm0-32.681v-29.681h29.681v29.681h-29.681Zm0-32.681v-29.681h29.681v29.681h-29.681Zm0-32.681v-29.681h29.681v29.681h-29.681Zm0-32.681v-29.681h29.681v29.681h-29.681Zm0-32.681v-29.681h29.681v29.681h-29.681Zm0-32.681v-29.681h29.681v29.681h-29.681Zm0-32.681v-29.681h29.681v29.681h-29.681Zm-3 0h-29.681v-29.681h29.681v29.681Zm-32.681 0h-29.681v-29.681h29.681v29.681Zm-32.681 0h-29.681v-29.681h29.681v29.681Zm-32.681 0h-29.682v-29.681h29.682v29.681Zm-32.682 0H689.31v-29.681h29.681v29.681Zm-32.681 0h-29.681v-29.681h29.681v29.681Zm-32.681 0h-29.681v-29.681h29.681v29.681Zm-32.681 0h-29.681v-29.681h29.681v29.681Zm-32.681 0h-29.682v-29.681h29.682v29.681Zm-32.682 0h-29.681v-29.681h29.681v29.681Zm-32.681 0h-29.681v-29.681h29.681v29.681Zm-32.681 0h-29.681v-29.681h29.681v29.681Zm-32.681 0h-29.681v-29.681h29.681v29.681Zm-32.681 0H395.18v-29.681h29.681v29.681Zm-32.681 0h-29.682v-29.681h29.682v29.681Zm-32.682 0h-29.681v-29.681h29.681v29.681Zm-32.681 0h-29.681v-29.681h29.681v29.681Zm-32.681 0h-29.681v-29.681h29.681v29.681Zm-32.681 0h-29.681v-29.681h29.681v29.681Zm-32.681 0h-29.682v-29.681h29.682v29.681Zm-32.682 0h-29.681v-29.681h29.681v29.681Zm0 3v29.681h-29.681v-29.681h29.681Zm0 32.681v29.681h-29.681v-29.681h29.681Zm0 32.681v29.681h-29.681v-29.681h29.681Zm0 32.681v29.681h-29.681v-29.681h29.681Zm0 32.681v29.681h-29.681v-29.681h29.681Zm0 32.681v29.681h-29.681v-29.681h29.681Zm0 32.681v29.681h-29.681V395.17h29.681Zm0 32.681v29.681h-29.681v-29.681h29.681Zm0 32.681v29.681h-29.681v-29.681h29.681Zm0 32.681v29.681h-29.681v-29.681h29.681Zm0 32.681v29.681h-29.681v-29.681h29.681Zm0 32.681v29.681h-29.681v-29.681h29.681Zm0 32.681v29.681h-29.681v-29.681h29.681Zm0 32.681v29.681h-29.681v-29.681h29.681Zm0 32.681v29.681h-29.681v-29.681h29.681Zm0 32.681v29.681h-29.681v-29.681h29.681Zm0 32.681v29.681h-29.681V721.98h29.681Zm0 32.681v29.681h-29.681v-29.681h29.681Zm0 32.681v29.681h-29.681v-29.681h29.681Zm0 32.681v29.681h-29.681v-29.681h29.681Zm0 32.681v29.681h-29.681v-29.681h29.681Zm0 32.681v29.681h-29.681v-29.681h29.681Zm3 0h29.682v29.681h-29.682v-29.681Zm32.682 0h29.681v29.681h-29.681v-29.681Zm32.681 0h29.681v29.681h-29.681v-29.681Zm32.681 0h29.681v29.681h-29.681v-29.681Zm32.681 0h29.681v29.681h-29.681v-29.681Zm32.681 0h29.682v29.681h-29.682v-29.681Zm32.682 0h29.681v29.681H395.18v-29.681Zm32.681 0h29.681v29.681h-29.681v-29.681Zm32.681 0h29.681v29.681h-29.681v-29.681Zm32.681 0h29.681v29.681h-29.681v-29.681Zm32.681 0h29.681v29.681h-29.681v-29.681Zm32.681 0h29.682v29.681h-29.682v-29.681Zm32.682 0h29.681v29.681h-29.681v-29.681Zm32.681 0h29.681v29.681h-29.681v-29.681Zm32.681 0h29.681v29.681h-29.681v-29.681Zm32.681 0h29.681v29.681H689.31v-29.681Zm32.681 0h29.682v29.681h-29.682v-29.681Zm32.682 0h29.681v29.681h-29.681v-29.681Zm32.681 0h29.681v29.681h-29.681v-29.681Zm32.681 0h29.681v29.681h-29.681v-29.681Zm32.681 0h29.681v29.681h-29.681v-29.681Zm32.681 0h29.682v29.681h-29.682v-29.681Zm0-3v-29.681h29.682v29.681h-29.682Zm0-32.681v-29.681h29.682v29.681h-29.682Zm0-32.681v-29.681h29.682v29.681h-29.682Zm0-32.681v-29.681h29.682v29.681h-29.682Zm0-32.681V721.98h29.682v29.681h-29.682Zm0-32.681v-29.681h29.682v29.681h-29.682Zm0-32.681v-29.681h29.682v29.681h-29.682Zm0-32.681v-29.681h29.682v29.681h-29.682Zm0-32.681v-29.681h29.682v29.681h-29.682Zm0-32.681v-29.681h29.682v29.681h-29.682Zm0-32.681v-29.681h29.682v29.681h-29.682Zm0-32.681v-29.681h29.682v29.681h-29.682Zm0-32.681v-29.681h29.682v29.681h-29.682Zm0-32.681v-29.681h29.682v29.681h-29.682Zm0-32.681V395.17h29.682v29.681h-29.682Zm0-32.681v-29.681h29.682v29.681h-29.682Zm0-32.681v-29.681h29.682v29.681h-29.682Zm0-32.681v-29.681h29.682v29.681h-29.682Zm0-32.681v-29.681h29.682v29.681h-29.682Zm0-32.681v-29.681h29.682v29.681h-29.682Zm0-32.681v-29.681h29.682v29.681h-29.682Zm0-32.681v-29.681h29.682v29.681h-29.682Zm0-32.681v-29.681h29.682v29.681h-29.682Zm-3 0h-29.681v-29.681h29.681v29.681Zm-32.681 0h-29.681v-29.681h29.681v29.681Zm-32.681 0h-29.681v-29.681h29.681v29.681Zm-32.681 0h-29.681v-29.681h29.681v29.681Zm-32.681 0h-29.682v-29.681h29.682v29.681Zm-32.682 0H689.31v-29.681h29.681v29.681Zm-32.681 0h-29.681v-29.681h29.681v29.681Zm-32.681 0h-29.681v-29.681h29.681v29.681Zm-32.681 0h-29.681v-29.681h29.681v29.681Zm-32.681 0h-29.682v-29.681h29.682v29.681Zm-32.682 0h-29.681v-29.681h29.681v29.681Zm-32.681 0h-29.681v-29.681h29.681v29.681Zm-32.681 0h-29.681v-29.681h29.681v29.681Zm-32.681 0h-29.681v-29.681h29.681v29.681Zm-32.681 0H395.18v-29.681h29.681v29.681Zm-32.681 0h-29.682v-29.681h29.682v29.681Zm-32.682 0h-29.681v-29.681h29.681v29.681Zm-32.681 0h-29.681v-29.681h29.681v29.681Zm-32.681 0h-29.681v-29.681h29.681v29.681Zm-32.681 0h-29.681v-29.681h29.681v29.681Zm-32.681 0h-29.682v-29.681h29.682v29.681Zm-32.682 0h-29.681v-29.681h29.681v29.681Zm-32.681 0H133.73v-29.681h29.681v29.681Zm0 3v29.681H133.73v-29.681h29.681Zm0 32.681v29.681H133.73v-29.681h29.681Zm0 32.681v29.681H133.73v-29.681h29.681Zm0 32.681v29.681H133.73v-29.681h29.681Zm0 32.681v29.681H133.73v-29.681h29.681Zm0 32.681v29.681H133.73v-29.681h29.681Zm0 32.681v29.681H133.73v-29.681h29.681Zm0 32.681v29.681H133.73V395.17h29.681Zm0 32.681v29.681H133.73v-29.681h29.681Zm0 32.681v29.681H133.73v-29.681h29.681Zm0 32.681v29.681H133.73v-29.681h29.681Zm0 32.681v29.681H133.73v-29.681h29.681Zm0 32.681v29.681H133.73v-29.681h29.681Zm0 32.681v29.681H133.73v-29.681h29.681Zm0 32.681v29.681H133.73v-29.681h29.681Zm0 32.681v29.681H133.73v-29.681h29.681Zm0 32.681v29.681H133.73v-29.681h29.681Zm0 32.681v29.681H133.73V721.98h29.681Zm0 32.681v29.681H133.73v-29.681h29.681Zm0 32.681v29.681H133.73v-29.681h29.681Zm0 32.681v29.681H133.73v-29.681h29.681Zm0 32.681v29.681H133.73v-29.681h29.681Zm0 32.681v29.681H133.73v-29.681h29.681Zm0 32.681v29.681H133.73v-29.681h29.681Zm3 0h29.681v29.681h-29.681v-29.681Zm32.681 0h29.682v29.681h-29.682v-29.681Zm32.682 0h29.681v29.681h-29.681v-29.681Zm32.681 0h29.681v29.681h-29.681v-29.681Zm32.681 0h29.681v29.681h-29.681v-29.681Zm32.681 0h29.681v29.681h-29.681v-29.681Zm32.681 0h29.682v29.681h-29.682v-29.681Zm32.682 0h29.681v29.681H395.18v-29.681Zm32.681 0h29.681v29.681h-29.681v-29.681Zm32.681 0h29.681v29.681h-29.681v-29.681Zm32.681 0h29.681v29.681h-29.681v-29.681Zm32.681 0h29.681v29.681h-29.681v-29.681Zm32.681 0h29.682v29.681h-29.682v-29.681Zm32.682 0h29.681v29.681h-29.681v-29.681Zm32.681 0h29.681v29.681h-29.681v-29.681Zm32.681 0h29.681v29.681h-29.681v-29.681Zm32.681 0h29.681v29.681H689.31v-29.681Zm32.681 0h29.682v29.681h-29.682v-29.681Zm32.682 0h29.681v29.681h-29.681v-29.681Zm32.681 0h29.681v29.681h-29.681v-29.681Zm32.681 0h29.681v29.681h-29.681v-29.681Zm32.681 0h29.681v29.681h-29.681v-29.681Zm32.681 0h29.682v29.681h-29.682v-29.681Zm32.682 0h29.681v29.681h-29.681v-29.681Zm0-3v-29.681h29.681v29.681h-29.681Zm0-32.681v-29.681h29.681v29.681h-29.681Zm0-32.681v-29.681h29.681v29.681h-29.681Zm0-32.681v-29.681h29.681v29.681h-29.681Zm0-32.681v-29.681h29.681v29.681h-29.681Zm0-32.681V721.98h29.681v29.681h-29.681Zm0-32.681v-29.681h29.681v29.681h-29.681Zm0-32.681v-29.681h29.681v29.681h-29.681Zm0-32.681v-29.681h29.681v29.681h-29.681Zm0-32.681v-29.681h29.681v29.681h-29.681Zm0-32.681v-29.681h29.681v29.681h-29.681Zm0-32.681v-29.681h29.681v29.681h-29.681Zm0-32.681v-29.681h29.681v29.681h-29.681Zm0-32.681v-29.681h29.681v29.681h-29.681Zm0-32.681v-29.681h29.681v29.681h-29.681Zm0-32.681V395.17h29.681v29.681h-29.681Zm0-32.681v-29.681h29.681v29.681h-29.681Zm0-32.681v-29.681h29.681v29.681h-29.681Zm0-32.681v-29.681h29.681v29.681h-29.681Zm0-32.681v-29.681h29.681v29.681h-29.681Zm0-32.681v-29.681h29.681v29.681h-29.681Zm0-32.681v-29.681h29.681v29.681h-29.681Zm0-32.681v-29.681h29.681v29.681h-29.681Zm0-32.681v-29.681h29.681v29.681h-29.681Zm0-32.681v-29.681h29.681v29.681h-29.681Zm-3 0h-29.682v-29.681h29.682v29.681Zm-32.682 0h-29.681v-29.681h29.681v29.681Zm-32.681 0h-29.681v-29.681h29.681v29.681Zm-32.681 0h-29.681v-29.681h29.681v29.681Zm-32.681 0h-29.681v-29.681h29.681v29.681Zm-32.681 0h-29.682v-29.681h29.682v29.681Zm-32.682 0H689.31v-29.681h29.681v29.681Zm-32.681 0h-29.681v-29.681h29.681v29.681Zm-32.681 0h-29.681v-29.681h29.681v29.681Zm-32.681 0h-29.681v-29.681h29.681v29.681Zm-32.681 0h-29.682v-29.681h29.682v29.681Zm-32.682 0h-29.681v-29.681h29.681v29.681Zm-32.681 0h-29.681v-29.681h29.681v29.681Zm-32.681 0h-29.681v-29.681h29.681v29.681Zm-32.681 0h-29.681v-29.681h29.681v29.681Zm-32.681 0H395.18v-29.681h29.681v29.681Zm-32.681 0h-29.682v-29.681h29.682v29.681Zm-32.682 0h-29.681v-29.681h29.681v29.681Zm-32.681 0h-29.681v-29.681h29.681v29.681Zm-32.681 0h-29.681v-29.681h29.681v29.681Zm-32.681 0h-29.681v-29.681h29.681v29.681Zm-32.681 0h-29.682v-29.681h29.682v29.681Zm-32.682 0h-29.681v-29.681h29.681v29.681Zm-32.681 0H133.73v-29.681h29.681v29.681Zm-32.681 0h-29.681v-29.681h29.681v29.681Zm0 3v29.681h-29.681v-29.681h29.681Zm0 32.681v29.681h-29.681v-29.681h29.681Zm0 32.681v29.681h-29.681v-29.681h29.681Zm0 32.681v29.681h-29.681v-29.681h29.681Zm0 32.681v29.681h-29.681v-29.681h29.681Zm0 32.681v29.681h-29.681v-29.681h29.681Zm0 32.681v29.681h-29.681v-29.681h29.681Zm0 32.681v29.681h-29.681v-29.681h29.681Zm0 32.681v29.681h-29.681V395.17h29.681Zm0 32.681v29.681h-29.681v-29.681h29.681Zm0 32.681v29.681h-29.681v-29.681h29.681Zm0 32.681v29.681h-29.681v-29.681h29.681Zm0 32.681v29.681h-29.681v-29.681h29.681Zm0 32.681v29.681h-29.681v-29.681h29.681Zm0 32.681v29.681h-29.681v-29.681h29.681Zm0 32.681v29.681h-29.681v-29.681h29.681Zm0 32.681v29.681h-29.681v-29.681h29.681Zm0 32.681v29.681h-29.681v-29.681h29.681Zm0 32.681v29.681h-29.681V721.98h29.681Zm0 32.681v29.681h-29.681v-29.681h29.681Zm0 32.681v29.681h-29.681v-29.681h29.681Zm0 32.681v29.681h-29.681v-29.681h29.681Zm0 32.681v29.681h-29.681v-29.681h29.681Zm0 32.681v29.681h-29.681v-29.681h29.681Zm0 32.681v29.681h-29.681v-29.681h29.681Zm0 32.681v29.681h-29.681v-29.681h29.681Zm3 0h29.681v29.681H133.73v-29.681Zm32.681 0h29.681v29.681h-29.681v-29.681Zm32.681 0h29.682v29.681h-29.682v-29.681Zm32.682 0h29.681v29.681h-29.681v-29.681Zm32.681 0h29.681v29.681h-29.681v-29.681Zm32.681 0h29.681v29.681h-29.681v-29.681Zm32.681 0h29.681v29.681h-29.681v-29.681Zm32.681 0h29.682v29.681h-29.682v-29.681Zm32.682 0h29.681v29.681H395.18v-29.681Zm32.681 0h29.681v29.681h-29.681v-29.681Zm32.681 0h29.681v29.681h-29.681v-29.681Zm32.681 0h29.681v29.681h-29.681v-29.681Zm32.681 0h29.681v29.681h-29.681v-29.681Zm32.681 0h29.682v29.681h-29.682v-29.681Zm32.682 0h29.681v29.681h-29.681v-29.681Zm32.681 0h29.681v29.681h-29.681v-29.681Zm32.681 0h29.681v29.681h-29.681v-29.681Zm32.681 0h29.681v29.681H689.31v-29.681Zm32.681 0h29.682v29.681h-29.682v-29.681Zm32.682 0h29.681v29.681h-29.681v-29.681Zm32.681 0h29.681v29.681h-29.681v-29.681Zm32.681 0h29.681v29.681h-29.681v-29.681Zm32.681 0h29.681v29.681h-29.681v-29.681Zm32.681 0h29.682v29.681h-29.682v-29.681Zm32.682 0h29.681v29.681h-29.681v-29.681Zm32.681 0h29.681v29.681H950.76v-29.681Zm0-3v-29.681h29.681v29.681H950.76Zm0-32.681v-29.681h29.681v29.681H950.76Zm0-32.681v-29.681h29.681v29.681H950.76Zm0-32.681v-29.681h29.681v29.681H950.76Zm0-32.681v-29.681h29.681v29.681H950.76Zm0-32.681v-29.681h29.681v29.681H950.76Zm0-32.681V721.98h29.681v29.681H950.76Zm0-32.681v-29.681h29.681v29.681H950.76Zm0-32.681v-29.681h29.681v29.681H950.76Zm0-32.681v-29.681h29.681v29.681H950.76Zm0-32.681v-29.681h29.681v29.681H950.76Zm0-32.681v-29.681h29.681v29.681H950.76Zm0-32.681v-29.681h29.681v29.681H950.76Zm0-32.681v-29.681h29.681v29.681H950.76Zm0-32.681v-29.681h29.681v29.681H950.76Zm0-32.681v-29.681h29.681v29.681H950.76Zm0-32.681V395.17h29.681v29.681H950.76Zm0-32.681v-29.681h29.681v29.681H950.76Zm0-32.681v-29.681h29.681v29.681H950.76Zm0-32.681v-29.681h29.681v29.681H950.76Zm0-32.681v-29.681h29.681v29.681H950.76Zm0-32.681v-29.681h29.681v29.681H950.76Zm0-32.681v-29.681h29.681v29.681H950.76Zm0-32.681v-29.681h29.681v29.681H950.76Zm0-32.681v-29.681h29.681v29.681H950.76Zm0-32.681v-29.681h29.681v29.681H950.76Zm0-32.681V68.36h29.681v29.681H950.76Zm-3 0h-29.681V68.36h29.681v29.681Zm-32.681 0h-29.682V68.36h29.682v29.681Zm-32.682 0h-29.681V68.36h29.681v29.681Zm-32.681 0h-29.681V68.36h29.681v29.681Zm-32.681 0h-29.681V68.36h29.681v29.681Zm-32.681 0h-29.681V68.36h29.681v29.681Zm-32.681 0h-29.682V68.36h29.682v29.681Zm-32.682 0H689.31V68.36h29.681v29.681Zm-32.681 0h-29.681V68.36h29.681v29.681Zm-32.681 0h-29.681V68.36h29.681v29.681Zm-32.681 0h-29.681V68.36h29.681v29.681Zm-32.681 0h-29.682V68.36h29.682v29.681Zm-32.682 0h-29.681V68.36h29.681v29.681Zm-32.681 0h-29.681V68.36h29.681v29.681Zm-32.681 0h-29.681V68.36h29.681v29.681Zm-32.681 0h-29.681V68.36h29.681v29.681Zm-32.681 0H395.18V68.36h29.681v29.681Zm-32.681 0h-29.682V68.36h29.682v29.681Zm-32.682 0h-29.681V68.36h29.681v29.681Zm-32.681 0h-29.681V68.36h29.681v29.681Zm-32.681 0h-29.681V68.36h29.681v29.681Zm-32.681 0h-29.681V68.36h29.681v29.681Zm-32.681 0h-29.682V68.36h29.682v29.681Zm-32.682 0h-29.681V68.36h29.681v29.681Zm-32.681 0H133.73V68.36h29.681v29.681Zm-32.681 0h-29.681V68.36h29.681v29.681Zm-32.681 0H68.368V68.36h29.681v29.681Zm0 3v29.681H68.368v-29.681h29.681Zm0 32.681v29.681H68.368v-29.681h29.681Zm0 32.681v29.681H68.368v-29.681h29.681Zm0 32.681v29.681H68.368v-29.681h29.681Zm0 32.681v29.681H68.368v-29.681h29.681Zm0 32.681v29.681H68.368v-29.681h29.681Zm0 32.681v29.681H68.368v-29.681h29.681Zm0 32.681v29.681H68.368v-29.681h29.681Zm0 32.681v29.681H68.368v-29.681h29.681Zm0 32.681v29.681H68.368V395.17h29.681Zm0 32.681v29.681H68.368v-29.681h29.681Zm0 32.681v29.681H68.368v-29.681h29.681Zm0 32.681v29.681H68.368v-29.681h29.681Zm0 32.681v29.681H68.368v-29.681h29.681Zm0 32.681v29.681H68.368v-29.681h29.681Zm0 32.681v29.681H68.368v-29.681h29.681Zm0 32.681v29.681H68.368v-29.681h29.681Zm0 32.681v29.681H68.368v-29.681h29.681Zm0 32.681v29.681H68.368v-29.681h29.681Zm0 32.681v29.681H68.368V721.98h29.681Zm0 32.681v29.681H68.368v-29.681h29.681Zm0 32.681v29.681H68.368v-29.681h29.681Zm0 32.681v29.681H68.368v-29.681h29.681Zm0 32.681v29.681H68.368v-29.681h29.681Zm0 32.681v29.681H68.368v-29.681h29.681Zm0 32.681v29.681H68.368v-29.681h29.681Zm0 32.681v29.681H68.368v-29.681h29.681Zm0 32.681v29.681H68.368v-29.681h29.681Zm3 0h29.681v29.681h-29.681v-29.681Zm32.681 0h29.681v29.681H133.73v-29.681Zm32.681 0h29.681v29.681h-29.681v-29.681Zm32.681 0h29.682v29.681h-29.682v-29.681Zm32.682 0h29.681v29.681h-29.681v-29.681Zm32.681 0h29.681v29.681h-29.681v-29.681Zm32.681 0h29.681v29.681h-29.681v-29.681Zm32.681 0h29.681v29.681h-29.681v-29.681Zm32.681 0h29.682v29.681h-29.682v-29.681Zm32.682 0h29.681v29.681H395.18v-29.681Zm32.681 0h29.681v29.681h-29.681v-29.681Zm32.681 0h29.681v29.681h-29.681v-29.681Zm32.681 0h29.681v29.681h-29.681v-29.681Zm32.681 0h29.681v29.681h-29.681v-29.681Zm32.681 0h29.682v29.681h-29.682v-29.681Zm32.682 0h29.681v29.681h-29.681v-29.681Zm32.681 0h29.681v29.681h-29.681v-29.681Zm32.681 0h29.681v29.681h-29.681v-29.681Zm32.681 0h29.681v29.681H689.31v-29.681Zm32.681 0h29.682v29.681h-29.682v-29.681Zm32.682 0h29.681v29.681h-29.681v-29.681Zm32.681 0h29.681v29.681h-29.681v-29.681Zm32.681 0h29.681v29.681h-29.681v-29.681Zm32.681 0h29.681v29.681h-29.681v-29.681Zm32.681 0h29.682v29.681h-29.682v-29.681Zm32.682 0h29.681v29.681h-29.681v-29.681Zm32.681 0h29.681v29.681H950.76v-29.681Zm32.681 0h29.681v29.681h-29.681v-29.681Zm0-3v-29.681h29.681v29.681h-29.681Zm0-32.681v-29.681h29.681v29.681h-29.681Zm0-32.681v-29.681h29.681v29.681h-29.681Zm0-32.681v-29.681h29.681v29.681h-29.681Zm0-32.681v-29.681h29.681v29.681h-29.681Zm0-32.681v-29.681h29.681v29.681h-29.681Zm0-32.681v-29.681h29.681v29.681h-29.681Zm0-32.681V721.98h29.681v29.681h-29.681Zm0-32.681v-29.681h29.681v29.681h-29.681Zm0-32.681v-29.681h29.681v29.681h-29.681Zm0-32.681v-29.681h29.681v29.681h-29.681Zm0-32.681v-29.681h29.681v29.681h-29.681Zm0-32.681v-29.681h29.681v29.681h-29.681Zm0-32.681v-29.681h29.681v29.681h-29.681Zm0-32.681v-29.681h29.681v29.681h-29.681Zm0-32.681v-29.681h29.681v29.681h-29.681Zm0-32.681v-29.681h29.681v29.681h-29.681Zm0-32.681V395.17h29.681v29.681h-29.681Zm0-32.681v-29.681h29.681v29.681h-29.681Zm0-32.681v-29.681h29.681v29.681h-29.681Zm0-32.681v-29.681h29.681v29.681h-29.681Zm0-32.681v-29.681h29.681v29.681h-29.681Zm0-32.681v-29.681h29.681v29.681h-29.681Zm0-32.681v-29.681h29.681v29.681h-29.681Zm0-32.681v-29.681h29.681v29.681h-29.681Zm0-32.681v-29.681h29.681v29.681h-29.681Zm0-32.681v-29.681h29.681v29.681h-29.681Zm0-32.681V68.36h29.681v29.681h-29.681Zm0-32.681V35.679h29.681V65.36h-29.681Zm-3 0H950.76V35.679h29.681V65.36Zm-32.681 0h-29.681V35.679h29.681V65.36Zm-32.681 0h-29.682V35.679h29.682V65.36Zm-32.682 0h-29.681V35.679h29.681V65.36Zm-32.681 0h-29.681V35.679h29.681V65.36Zm-32.681 0h-29.681V35.679h29.681V65.36Zm-32.681 0h-29.681V35.679h29.681V65.36Zm-32.681 0h-29.682V35.679h29.682V65.36Zm-32.682 0H689.31V35.679h29.681V65.36Zm-32.681 0h-29.681V35.679h29.681V65.36Zm-32.681 0h-29.681V35.679h29.681V65.36Zm-32.681 0h-29.681V35.679h29.681V65.36Zm-32.681 0h-29.682V35.679h29.682V65.36Zm-32.682 0h-29.681V35.679h29.681V65.36Zm-32.681 0h-29.681V35.679h29.681V65.36Zm-32.681 0h-29.681V35.679h29.681V65.36Zm-32.681 0h-29.681V35.679h29.681V65.36Zm-32.681 0H395.18V35.679h29.681V65.36Zm-32.681 0h-29.682V35.679h29.682V65.36Zm-32.682 0h-29.681V35.679h29.681V65.36Zm-32.681 0h-29.681V35.679h29.681V65.36Zm-32.681 0h-29.681V35.679h29.681V65.36Zm-32.681 0h-29.681V35.679h29.681V65.36Zm-32.681 0h-29.682V35.679h29.682V65.36Zm-32.682 0h-29.681V35.679h29.681V65.36Zm-32.681 0H133.73V35.679h29.681V65.36Zm-32.681 0h-29.681V35.679h29.681V65.36Zm-32.681 0H68.368V35.679h29.681V65.36Zm-32.681 0H35.686V35.679h29.682V65.36Zm0 3v29.681H35.686V68.36h29.682Zm0 32.681v29.681H35.686v-29.681h29.682Zm0 32.681v29.681H35.686v-29.681h29.682Zm0 32.681v29.681H35.686v-29.681h29.682Zm0 32.681v29.681H35.686v-29.681h29.682Zm0 32.681v29.681H35.686v-29.681h29.682Zm0 32.681v29.681H35.686v-29.681h29.682Zm0 32.681v29.681H35.686v-29.681h29.682Zm0 32.681v29.681H35.686v-29.681h29.682Zm0 32.681v29.681H35.686v-29.681h29.682Zm0 32.681v29.681H35.686V395.17h29.682Zm0 32.681v29.681H35.686v-29.681h29.682Zm0 32.681v29.681H35.686v-29.681h29.682Zm0 32.681v29.681H35.686v-29.681h29.682Zm0 32.681v29.681H35.686v-29.681h29.682Zm0 32.681v29.681H35.686v-29.681h29.682Zm0 32.681v29.681H35.686v-29.681h29.682Zm0 32.681v29.681H35.686v-29.681h29.682Zm0 32.681v29.681H35.686v-29.681h29.682Zm0 32.681v29.681H35.686v-29.681h29.682Zm0 32.681v29.681H35.686V721.98h29.682Zm0 32.681v29.681H35.686v-29.681h29.682Zm0 32.681v29.681H35.686v-29.681h29.682Zm0 32.681v29.681H35.686v-29.681h29.682Zm0 32.681v29.681H35.686v-29.681h29.682Zm0 32.681v29.681H35.686v-29.681h29.682Zm0 32.681v29.681H35.686v-29.681h29.682Zm0 32.681v29.681H35.686v-29.681h29.682Zm0 32.681v29.681H35.686v-29.681h29.682Zm0 32.681v29.681H35.686v-29.681h29.682Zm3 0h29.681v29.681H68.368v-29.681Zm32.681 0h29.681v29.681h-29.681v-29.681Zm32.681 0h29.681v29.681H133.73v-29.681Zm32.681 0h29.681v29.681h-29.681v-29.681Zm32.681 0h29.682v29.681h-29.682v-29.681Zm32.682 0h29.681v29.681h-29.681v-29.681Zm32.681 0h29.681v29.681h-29.681v-29.681Zm32.681 0h29.681v29.681h-29.681v-29.681Zm32.681 0h29.681v29.681h-29.681v-29.681Zm32.681 0h29.682v29.681h-29.682v-29.681Zm32.682 0h29.681v29.681H395.18v-29.681Zm32.681 0h29.681v29.681h-29.681v-29.681Zm32.681 0h29.681v29.681h-29.681v-29.681Zm32.681 0h29.681v29.681h-29.681v-29.681Zm32.681 0h29.681v29.681h-29.681v-29.681Zm32.681 0h29.682v29.681h-29.682v-29.681Zm32.682 0h29.681v29.681h-29.681v-29.681Zm32.681 0h29.681v29.681h-29.681v-29.681Zm32.681 0h29.681v29.681h-29.681v-29.681Zm32.681 0h29.681v29.681H689.31v-29.681Zm32.681 0h29.682v29.681h-29.682v-29.681Zm32.682 0h29.681v29.681h-29.681v-29.681Zm32.681 0h29.681v29.681h-29.681v-29.681Zm32.681 0h29.681v29.681h-29.681v-29.681Zm32.681 0h29.681v29.681h-29.681v-29.681Zm32.681 0h29.682v29.681h-29.682v-29.681Zm32.682 0h29.681v29.681h-29.681v-29.681Zm32.681 0h29.681v29.681H950.76v-29.681Zm32.681 0h29.681v29.681h-29.681v-29.681Zm32.681 0h29.681v29.681h-29.681v-29.681Zm0-3v-29.681h29.681v29.681h-29.681Zm0-32.681v-29.681h29.681v29.681h-29.681Zm0-32.681v-29.681h29.681v29.681h-29.681Zm0-32.681v-29.681h29.681v29.681h-29.681Zm0-32.681v-29.681h29.681v29.681h-29.681Zm0-32.681v-29.681h29.681v29.681h-29.681Zm0-32.681v-29.681h29.681v29.681h-29.681Zm0-32.681v-29.681h29.681v29.681h-29.681Zm0-32.681V721.98h29.681v29.681h-29.681Zm0-32.681v-29.681h29.681v29.681h-29.681Zm0-32.681v-29.681h29.681v29.681h-29.681Zm0-32.681v-29.681h29.681v29.681h-29.681Zm0-32.681v-29.681h29.681v29.681h-29.681Zm0-32.681v-29.681h29.681v29.681h-29.681Zm0-32.681v-29.681h29.681v29.681h-29.681Zm0-32.681v-29.681h29.681v29.681h-29.681Zm0-32.681v-29.681h29.681v29.681h-29.681Zm0-32.681v-29.681h29.681v29.681h-29.681Zm0-32.681V395.17h29.681v29.681h-29.681Zm0-32.681v-29.681h29.681v29.681h-29.681Zm0-32.681v-29.681h29.681v29.681h-29.681Zm0-32.681v-29.681h29.681v29.681h-29.681Zm0-32.681v-29.681h29.681v29.681h-29.681Zm0-32.681v-29.681h29.681v29.681h-29.681Zm0-32.681v-29.681h29.681v29.681h-29.681Zm0-32.681v-29.681h29.681v29.681h-29.681Zm0-32.681v-29.681h29.681v29.681h-29.681Zm0-32.681v-29.681h29.681v29.681h-29.681Zm0-32.681V68.36h29.681v29.681h-29.681Zm0-32.681V35.679h29.681V65.36h-29.681Zm-3-62.362v29.681h-29.681V3h29.681Zm-32.681 0v29.681H950.76V3h29.681Zm-32.681 0v29.681h-29.681V3h29.681Zm-32.681 0v29.681h-29.682V3h29.682Zm-32.682 0v29.681h-29.681V3h29.681Zm-32.681 0v29.681h-29.681V3h29.681Zm-32.681 0v29.681h-29.681V3h29.681Zm-32.681 0v29.681h-29.681V3h29.681Zm-32.681 0v29.681h-29.682V3h29.682Zm-32.682 0v29.681H689.31V3h29.681Zm-32.681 0v29.681h-29.681V3h29.681Zm-32.681 0v29.681h-29.681V3h29.681Zm-32.681 0v29.681h-29.681V3h29.681Zm-32.681 0v29.681h-29.682V3h29.682Zm-32.682 0v29.681h-29.681V3h29.681Zm-32.681 0v29.681h-29.681V3h29.681Zm-32.681 0v29.681h-29.681V3h29.681Zm-32.681 0v29.681h-29.681V3h29.681Zm-32.681 0v29.681H395.18V3h29.681Zm-32.681 0v29.681h-29.682V3h29.682Zm-32.682 0v29.681h-29.681V3h29.681Zm-32.681 0v29.681h-29.681V3h29.681Zm-32.681 0v29.681h-29.681V3h29.681Zm-32.681 0v29.681h-29.681V3h29.681Zm-32.681 0v29.681h-29.682V3h29.682Zm-32.682 0v29.681h-29.681V3h29.681Zm-32.681 0v29.681H133.73V3h29.681Zm-32.681 0v29.681h-29.681V3h29.681Zm-32.681 0v29.681H68.368V3h29.681Zm-32.681 0v29.681H35.686V3h29.682ZM3.011 3h29.681v29.681H3.011V3Zm0 32.681h29.681v29.681H3.011V35.681Zm0 32.681h29.681v29.681H3.011V68.362Zm0 32.681h29.681v29.681H3.011v-29.681Zm0 32.681h29.681v29.681H3.011v-29.681Zm0 32.681h29.681v29.681H3.011v-29.681Zm0 32.681h29.681v29.681H3.011v-29.681Zm0 32.681h29.681v29.681H3.011v-29.681Zm0 32.681h29.681v29.681H3.011v-29.681Zm0 32.681h29.681v29.681H3.011v-29.681Zm0 32.681h29.681v29.681H3.011V329.81Zm0 32.681h29.681v29.681H3.011v-29.681Zm0 32.681h29.681v29.681H3.011v-29.681Zm0 32.681h29.681v29.681H3.011v-29.681Zm0 32.681h29.681v29.681H3.011v-29.681Zm0 32.681h29.681v29.681H3.011v-29.681Zm0 32.681h29.681v29.681H3.011v-29.681Zm0 32.681h29.681v29.681H3.011v-29.681Zm0 32.681h29.681v29.681H3.011v-29.681Zm0 32.681h29.681v29.681H3.011v-29.681Zm0 32.681h29.681v29.681H3.011V656.62Zm0 32.681h29.681v29.681H3.011v-29.681Zm0 32.681h29.681v29.681H3.011v-29.681Zm0 32.681h29.681v29.681H3.011v-29.681Zm0 32.681h29.681v29.681H3.011v-29.681Zm0 32.681h29.681v29.681H3.011v-29.681Zm0 32.681h29.681v29.681H3.011v-29.681Zm0 32.681h29.681v29.681H3.011v-29.681Zm0 32.681h29.681v29.681H3.011v-29.681Zm0 32.681h29.681v29.681H3.011v-29.681Zm0 32.681h29.681v29.681H3.011V983.43Zm0 32.681h29.681v29.681H3.011v-29.681Z" style="fill:#FCD142"/></svg>